<!-- Generated by IcoMoon.io -->
<svg version="1.1" xmlns="http://www.w3.org/2000/svg" width="64" height="32" viewBox="0 0 64 32">
<title>diagram</title>
<path fill="#2196f3" d="M6.965 6.983h0.497v2.239h-0.497v-2.239zM8.955 7.979h0.498v1.244h-0.498v-1.244zM4.975 8.725h0.497v0.498h-0.497v-0.498zM3.483 8.476h0.498v0.746h-0.498v-0.746z"></path>
<path fill="#212121" d="M0.746 13.202h11.94c0 0 0 0 0 0 0.412 0 0.746-0.334 0.746-0.746v0-0.995c0-0.412-0.334-0.746-0.746-0.746v0h-0.249v-6.204l1.413-1.338c0.097 0.049 0.211 0.077 0.332 0.077 0.415 0 0.751-0.336 0.751-0.75s-0.336-0.75-0.751-0.75c-0.415 0-0.751 0.336-0.751 0.75 0 0.115 0.026 0.224 0.072 0.322l-0.002-0.005-1.065 1.009v-0.574c0-0.412-0.334-0.746-0.746-0.746v0h-9.95c-0.412 0-0.746 0.334-0.746 0.746v0 7.463h-0.249c-0.412 0-0.746 0.334-0.746 0.746v0 0.995c0 0.412 0.334 0.746 0.746 0.746v0zM14.179 2.257c0.137 0 0.249 0.111 0.249 0.249s-0.111 0.249-0.249 0.249v0c-0.137 0-0.249-0.111-0.249-0.249s0.111-0.249 0.249-0.249v0zM1.492 3.252c0-0.137 0.111-0.249 0.249-0.249h9.95c0.137 0 0.249 0.111 0.249 0.249v1.045l-0.498 0.473v-1.020c0-0.138-0.112-0.249-0.249-0.249h-8.955c-0.137 0-0.249 0.111-0.249 0.249v6.219c0 0.137 0.112 0.249 0.249 0.249h8.955c0.138 0 0.249-0.111 0.249-0.249v-4.515l0.498-0.471v5.732h-10.448v-7.462zM3.731 6.486c-0.001 0-0.001 0-0.002 0-0.412 0-0.746 0.334-0.746 0.746s0.334 0.746 0.746 0.746c0.202 0 0.385-0.080 0.519-0.21l-0 0 0.865 0.434c0.1 0.050 0.222 0.027 0.297-0.057l1.838-2.068 1.807 1.354c0.097 0.073 0.232 0.065 0.32-0.018l1.57-1.488v3.795h-8.458v-5.722h8.458v1.242l-1.76 1.667-1.822-1.366c-0.041-0.031-0.093-0.050-0.149-0.050-0.074 0-0.14 0.032-0.186 0.083l-0 0-1.863 2.097-0.697-0.348c0.005-0.030 0.008-0.060 0.009-0.090 0-0.412-0.334-0.746-0.746-0.746v0zM3.98 7.232c0 0.137-0.111 0.249-0.249 0.249s-0.249-0.111-0.249-0.249v0c0-0.137 0.111-0.249 0.249-0.249s0.249 0.111 0.249 0.249v0zM5.473 11.212h2.487v0.249c0 0.137-0.111 0.249-0.249 0.249h-1.99c-0.137 0-0.249-0.111-0.249-0.249v0-0.249zM0.498 11.461c0-0.137 0.111-0.249 0.249-0.249h4.229v0.249c0 0.412 0.334 0.746 0.746 0.746v0h1.99c0.412 0 0.746-0.334 0.746-0.746v0-0.249h4.229c0.137 0 0.249 0.111 0.249 0.249v0.995c0 0.137-0.111 0.249-0.249 0.249h-11.94c-0 0-0 0-0 0-0.137 0-0.249-0.111-0.249-0.249 0 0 0 0 0 0v0-0.995z"></path>
</svg>
